<?xml version="1.0" encoding="utf-8" ?>
<?xml-stylesheet href="stroke-diagram.css" type="text/css" title="Stroke Diagram" alternate="no" media="screen"?>
<svg baseProfile="full" height="100" version="1.1" viewBox="(0, 0, 300, 100)" width="300" xmlns="http://www.w3.org/2000/svg" xmlns:ev="http://www.w3.org/2001/xml-events" xmlns:xlink="http://www.w3.org/1999/xlink"><defs /><line class="stroke-diagram--bounding-box" x1="1" x2="299" y1="1" y2="1" /><line class="stroke-diagram--bounding-box" x1="1" x2="1" y1="1" y2="99" /><line class="stroke-diagram--bounding-box" x1="1" x2="299" y1="99" y2="99" /><line class="stroke-diagram--guide-line" x1="0" x2="300" y1="50" y2="50" /><line class="stroke-diagram--guide-line" x1="50" x2="50" y1="1" y2="99" /><line class="stroke-diagram--bounding-box" x1="99" x2="99" y1="1" y2="99" /><path class="stroke-diagram--current-path" d="M 24 33 C 40 33 59 32 72 29" /><circle class="stroke-diagram--path-start" cx="24" cy="33" r="4" /><line class="stroke-diagram--guide-line" x1="150" x2="150" y1="1" y2="99" /><line class="stroke-diagram--bounding-box" x1="199" x2="199" y1="1" y2="99" /><path class="stroke-diagram--existing-path" d="M 124 33 C 140 33 159 32 172 29" /><path class="stroke-diagram--current-path" d="M 145 19 C 140 47 143 65 152 85" /><circle class="stroke-diagram--path-start" cx="145" cy="19" r="4" /><line class="stroke-diagram--guide-line" x1="250" x2="250" y1="1" y2="99" /><line class="stroke-diagram--bounding-box" x1="299" x2="299" y1="1" y2="99" /><path class="stroke-diagram--existing-path" d="M 224 33 C 240 33 259 32 272 29" /><path class="stroke-diagram--existing-path" d="M 245 19 C 240 47 243 65 252 85" /><path class="stroke-diagram--current-path" d="M 266 40 C 264 51 252 94 229 84 212 64 254 40 277 53 300 67 285 86 263 89" /><circle class="stroke-diagram--path-start" cx="266" cy="40" r="4" /></svg>