<?xml version="1.0" encoding="utf-8" ?>
<svg baseProfile="full" height="100" version="1.1" viewBox="(0, 0, 300, 100)" width="300" xmlns="http://www.w3.org/2000/svg" xmlns:ev="http://www.w3.org/2001/xml-events" xmlns:xlink="http://www.w3.org/1999/xlink"><defs><style type="text/css"><![CDATA[
.stroke-diagram--outer-container {
    width: 100%;
    overflow-x: auto;
    overflow-y: hidden
}
.stroke-diagram--guide-line {
    fill: none;
    stroke: #ddd;
    stroke-width: 2;
    stroke-linecap: square;
    stroke-linejoin: square;
    stroke-dasharray: 5, 5
}
.stroke-diagram--bounding-box {
    fill: none;
    stroke: #ddd;
    stroke-width: 2;
    stroke-linecap: square;
    stroke-linejoin: square;
}

.stroke-diagram--current-path {
    fill: none;
    stroke: #000;
    stroke-width: 3;
    stroke-linecap: round;
    stroke-linejoin: round;
}

.stroke-diagram--existing-path {
    fill: none;
    stroke: #aaa;
    stroke-width: 3;
    stroke-linecap: round;
    stroke-linejoin: round
}

.stroke-diagram--path-start {
    fill: rgba(255, 0, 0, 0.7);
    stroke: none
}
]]></style></defs><line class="stroke-diagram--bounding-box" x1="1" x2="299" y1="1" y2="1" /><line class="stroke-diagram--bounding-box" x1="1" x2="1" y1="1" y2="99" /><line class="stroke-diagram--bounding-box" x1="1" x2="299" y1="99" y2="99" /><line class="stroke-diagram--guide-line" x1="0" x2="300" y1="50" y2="50" /><line class="stroke-diagram--guide-line" x1="50" x2="50" y1="1" y2="99" /><line class="stroke-diagram--bounding-box" x1="99" x2="99" y1="1" y2="99" /><path class="stroke-diagram--current-path" d="M 70 21 C 63 25 41 30 23 32" /><circle class="stroke-diagram--path-start" cx="70" cy="21" r="4" /><line class="stroke-diagram--guide-line" x1="150" x2="150" y1="1" y2="99" /><line class="stroke-diagram--bounding-box" x1="199" x2="199" y1="1" y2="99" /><path class="stroke-diagram--existing-path" d="M 170 21 C 163 25 141 30 123 32" /><path class="stroke-diagram--current-path" d="M 114 51 C 129 51 176 51 188 52" /><circle class="stroke-diagram--path-start" cx="114" cy="51" r="4" /><line class="stroke-diagram--guide-line" x1="250" x2="250" y1="1" y2="99" /><line class="stroke-diagram--bounding-box" x1="299" x2="299" y1="1" y2="99" /><path class="stroke-diagram--existing-path" d="M 270 21 C 263 25 241 30 223 32" /><path class="stroke-diagram--existing-path" d="M 214 51 C 229 51 276 51 288 52" /><path class="stroke-diagram--current-path" d="M 253 32 C 251 49 260 78 229 86" /><circle class="stroke-diagram--path-start" cx="253" cy="32" r="4" /></svg>