<?xml version="1.0" encoding="utf-8" ?>
<?xml-stylesheet href="stroke-diagram.css" type="text/css" title="Stroke Diagram" alternate="no" media="screen"?>
<svg baseProfile="full" height="100%" version="1.1" width="100%" xmlns="http://www.w3.org/2000/svg" xmlns:ev="http://www.w3.org/2001/xml-events" xmlns:xlink="http://www.w3.org/1999/xlink"><defs /><line class="stroke-diagram--bounding-box" x1="1" x2="399" y1="1" y2="1" /><line class="stroke-diagram--bounding-box" x1="1" x2="1" y1="1" y2="99" /><line class="stroke-diagram--bounding-box" x1="1" x2="399" y1="99" y2="99" /><line class="stroke-diagram--guide-line" x1="0" x2="400" y1="50" y2="50" /><line class="stroke-diagram--guide-line" x1="50" x2="50" y1="1" y2="99" /><line class="stroke-diagram--bounding-box" x1="99" x2="99" y1="1" y2="99" /><path class="stroke-diagram--current-path" d="M 33 22 C 38 25 53 31 59 32" /><circle class="stroke-diagram--path-start" cx="33" cy="22" r="4" /><line class="stroke-diagram--guide-line" x1="150" x2="150" y1="1" y2="99" /><line class="stroke-diagram--bounding-box" x1="199" x2="199" y1="1" y2="99" /><path class="stroke-diagram--existing-path" d="M 133 22 C 138 25 153 31 159 32" /><path class="stroke-diagram--current-path" d="M 138 40 C 131 64 157 57 158 75 159 92 137 90 131 80" /><circle class="stroke-diagram--path-start" cx="138" cy="40" r="4" /><line class="stroke-diagram--guide-line" x1="250" x2="250" y1="1" y2="99" /><line class="stroke-diagram--bounding-box" x1="299" x2="299" y1="1" y2="99" /><path class="stroke-diagram--existing-path" d="M 233 22 C 238 25 253 31 259 32" /><path class="stroke-diagram--existing-path" d="M 238 40 C 231 64 257 57 258 75 259 92 237 90 231 80" /><path class="stroke-diagram--current-path" d="M 230 64 C 225 68 216 75 210 82" /><circle class="stroke-diagram--path-start" cx="230" cy="64" r="4" /><line class="stroke-diagram--guide-line" x1="350" x2="350" y1="1" y2="99" /><line class="stroke-diagram--bounding-box" x1="399" x2="399" y1="1" y2="99" /><path class="stroke-diagram--existing-path" d="M 333 22 C 338 25 353 31 359 32" /><path class="stroke-diagram--existing-path" d="M 338 40 C 331 64 357 57 358 75 359 92 337 90 331 80" /><path class="stroke-diagram--existing-path" d="M 330 64 C 325 68 316 75 310 82" /><path class="stroke-diagram--current-path" d="M 365 58 C 372 64 378 68 384 78" /><circle class="stroke-diagram--path-start" cx="365" cy="58" r="4" /></svg>