<?xml version="1.0" encoding="utf-8" ?>
<?xml-stylesheet href="stroke-diagram.css" type="text/css" title="Stroke Diagram" alternate="no" media="screen"?>
<svg baseProfile="full" height="100%" version="1.1" width="100%" xmlns="http://www.w3.org/2000/svg" xmlns:ev="http://www.w3.org/2001/xml-events" xmlns:xlink="http://www.w3.org/1999/xlink"><defs /><line class="stroke-diagram--bounding-box" x1="1" x2="299" y1="1" y2="1" /><line class="stroke-diagram--bounding-box" x1="1" x2="1" y1="1" y2="99" /><line class="stroke-diagram--bounding-box" x1="1" x2="299" y1="99" y2="99" /><line class="stroke-diagram--guide-line" x1="0" x2="300" y1="50" y2="50" /><line class="stroke-diagram--guide-line" x1="50" x2="50" y1="1" y2="99" /><line class="stroke-diagram--bounding-box" x1="99" x2="99" y1="1" y2="99" /><path class="stroke-diagram--current-path" d="M 22 22 C 16 89 24 94 33 79" /><circle class="stroke-diagram--path-start" cx="22" cy="22" r="4" /><line class="stroke-diagram--guide-line" x1="150" x2="150" y1="1" y2="99" /><line class="stroke-diagram--bounding-box" x1="199" x2="199" y1="1" y2="99" /><path class="stroke-diagram--existing-path" d="M 122 22 C 116 89 124 94 133 79" /><path class="stroke-diagram--current-path" d="M 141 38 C 152 38 179 38 188 36" /><circle class="stroke-diagram--path-start" cx="141" cy="38" r="4" /><line class="stroke-diagram--guide-line" x1="250" x2="250" y1="1" y2="99" /><line class="stroke-diagram--bounding-box" x1="299" x2="299" y1="1" y2="99" /><path class="stroke-diagram--existing-path" d="M 222 22 C 216 89 224 94 233 79" /><path class="stroke-diagram--existing-path" d="M 241 38 C 252 38 279 38 288 36" /><path class="stroke-diagram--current-path" d="M 268 20 C 268 52 274 87 261 86 237 91 236 50 289 80" /><circle class="stroke-diagram--path-start" cx="268" cy="20" r="4" /></svg>