<?xml version="1.0" encoding="utf-8" ?>
<svg baseProfile="full" height="100" version="1.1" viewBox="(0, 0, 400, 100)" width="400" xmlns="http://www.w3.org/2000/svg" xmlns:ev="http://www.w3.org/2001/xml-events" xmlns:xlink="http://www.w3.org/1999/xlink"><defs><style type="text/css"><![CDATA[
.stroke-diagram--outer-container {
    width: 100%;
    overflow-x: auto;
    overflow-y: hidden
}
.stroke-diagram--guide-line {
    fill: none;
    stroke: #ddd;
    stroke-width: 2;
    stroke-linecap: square;
    stroke-linejoin: square;
    stroke-dasharray: 5, 5
}
.stroke-diagram--bounding-box {
    fill: none;
    stroke: #ddd;
    stroke-width: 2;
    stroke-linecap: square;
    stroke-linejoin: square;
}

.stroke-diagram--current-path {
    fill: none;
    stroke: #000;
    stroke-width: 3;
    stroke-linecap: round;
    stroke-linejoin: round;
}

.stroke-diagram--existing-path {
    fill: none;
    stroke: #aaa;
    stroke-width: 3;
    stroke-linecap: round;
    stroke-linejoin: round
}

.stroke-diagram--path-start {
    fill: rgba(255, 0, 0, 0.7);
    stroke: none
}
]]></style></defs><line class="stroke-diagram--bounding-box" x1="1" x2="399" y1="1" y2="1" /><line class="stroke-diagram--bounding-box" x1="1" x2="1" y1="1" y2="99" /><line class="stroke-diagram--bounding-box" x1="1" x2="399" y1="99" y2="99" /><line class="stroke-diagram--guide-line" x1="0" x2="400" y1="50" y2="50" /><line class="stroke-diagram--guide-line" x1="50" x2="50" y1="1" y2="99" /><line class="stroke-diagram--bounding-box" x1="99" x2="99" y1="1" y2="99" /><path class="stroke-diagram--current-path" d="M 21 20 C 17 64 17 100 32 77" /><circle class="stroke-diagram--path-start" cx="21" cy="20" r="4" /><line class="stroke-diagram--guide-line" x1="150" x2="150" y1="1" y2="99" /><line class="stroke-diagram--bounding-box" x1="199" x2="199" y1="1" y2="99" /><path class="stroke-diagram--existing-path" d="M 121 20 C 117 64 117 100 132 77" /><path class="stroke-diagram--current-path" d="M 141 24 C 157 25 170 24 183 22" /><circle class="stroke-diagram--path-start" cx="141" cy="24" r="4" /><line class="stroke-diagram--guide-line" x1="250" x2="250" y1="1" y2="99" /><line class="stroke-diagram--bounding-box" x1="299" x2="299" y1="1" y2="99" /><path class="stroke-diagram--existing-path" d="M 221 20 C 217 64 217 100 232 77" /><path class="stroke-diagram--existing-path" d="M 241 24 C 257 25 270 24 283 22" /><path class="stroke-diagram--current-path" d="M 240 46 C 254 46 270 46 287 43" /><circle class="stroke-diagram--path-start" cx="240" cy="46" r="4" /><line class="stroke-diagram--guide-line" x1="350" x2="350" y1="1" y2="99" /><line class="stroke-diagram--bounding-box" x1="399" x2="399" y1="1" y2="99" /><path class="stroke-diagram--existing-path" d="M 321 20 C 317 64 317 100 332 77" /><path class="stroke-diagram--existing-path" d="M 341 24 C 357 25 370 24 383 22" /><path class="stroke-diagram--existing-path" d="M 340 46 C 354 46 370 46 387 43" /><path class="stroke-diagram--current-path" d="M 367 28 C 365 60 376 83 357 84 331 84 344 50 388 78" /><circle class="stroke-diagram--path-start" cx="367" cy="28" r="4" /></svg>