<?xml version="1.0" encoding="utf-8" ?>
<svg baseProfile="full" height="100" version="1.1" viewBox="(0, 0, 400, 100)" width="400" xmlns="http://www.w3.org/2000/svg" xmlns:ev="http://www.w3.org/2001/xml-events" xmlns:xlink="http://www.w3.org/1999/xlink"><defs><style type="text/css"><![CDATA[
.stroke-diagram--outer-container {
    width: 100%;
    overflow-x: auto;
    overflow-y: hidden
}
.stroke-diagram--guide-line {
    fill: none;
    stroke: #ddd;
    stroke-width: 2;
    stroke-linecap: square;
    stroke-linejoin: square;
    stroke-dasharray: 5, 5
}
.stroke-diagram--bounding-box {
    fill: none;
    stroke: #ddd;
    stroke-width: 2;
    stroke-linecap: square;
    stroke-linejoin: square;
}

.stroke-diagram--current-path {
    fill: none;
    stroke: #000;
    stroke-width: 3;
    stroke-linecap: round;
    stroke-linejoin: round;
}

.stroke-diagram--existing-path {
    fill: none;
    stroke: #aaa;
    stroke-width: 3;
    stroke-linecap: round;
    stroke-linejoin: round
}

.stroke-diagram--path-start {
    fill: rgba(255, 0, 0, 0.7);
    stroke: none
}
]]></style></defs><line class="stroke-diagram--bounding-box" x1="1" x2="399" y1="1" y2="1" /><line class="stroke-diagram--bounding-box" x1="1" x2="1" y1="1" y2="99" /><line class="stroke-diagram--bounding-box" x1="1" x2="399" y1="99" y2="99" /><line class="stroke-diagram--guide-line" x1="0" x2="400" y1="50" y2="50" /><line class="stroke-diagram--guide-line" x1="50" x2="50" y1="1" y2="99" /><line class="stroke-diagram--bounding-box" x1="99" x2="99" y1="1" y2="99" /><path class="stroke-diagram--current-path" d="M 17 37 C 30 37 67 37 88 37" /><circle class="stroke-diagram--path-start" cx="17" cy="37" r="4" /><line class="stroke-diagram--guide-line" x1="150" x2="150" y1="1" y2="99" /><line class="stroke-diagram--bounding-box" x1="199" x2="199" y1="1" y2="99" /><path class="stroke-diagram--existing-path" d="M 117 37 C 130 37 167 37 188 37" /><path class="stroke-diagram--current-path" d="M 152 16 C 149 89 160 86 140 82" /><circle class="stroke-diagram--path-start" cx="152" cy="16" r="4" /><line class="stroke-diagram--guide-line" x1="250" x2="250" y1="1" y2="99" /><line class="stroke-diagram--bounding-box" x1="299" x2="299" y1="1" y2="99" /><path class="stroke-diagram--existing-path" d="M 217 37 C 230 37 267 37 288 37" /><path class="stroke-diagram--existing-path" d="M 252 16 C 249 89 260 86 240 82" /><path class="stroke-diagram--current-path" d="M 235 53 C 232 58 224 71 218 77" /><circle class="stroke-diagram--path-start" cx="235" cy="53" r="4" /><line class="stroke-diagram--guide-line" x1="350" x2="350" y1="1" y2="99" /><line class="stroke-diagram--bounding-box" x1="399" x2="399" y1="1" y2="99" /><path class="stroke-diagram--existing-path" d="M 317 37 C 330 37 367 37 388 37" /><path class="stroke-diagram--existing-path" d="M 352 16 C 349 89 360 86 340 82" /><path class="stroke-diagram--existing-path" d="M 335 53 C 332 58 324 71 318 77" /><path class="stroke-diagram--current-path" d="M 369 52 C 374 57 383 67 389 72" /><circle class="stroke-diagram--path-start" cx="369" cy="52" r="4" /></svg>