<?xml version="1.0" encoding="utf-8" ?>
<svg baseProfile="full" height="100" version="1.1" viewBox="(0, 0, 200, 100)" width="200" xmlns="http://www.w3.org/2000/svg" xmlns:ev="http://www.w3.org/2001/xml-events" xmlns:xlink="http://www.w3.org/1999/xlink"><defs><style type="text/css"><![CDATA[
.stroke-diagram--outer-container {
    width: 100%;
    overflow-x: auto;
    overflow-y: hidden
}
.stroke-diagram--guide-line {
    fill: none;
    stroke: #ddd;
    stroke-width: 2;
    stroke-linecap: square;
    stroke-linejoin: square;
    stroke-dasharray: 5, 5
}
.stroke-diagram--bounding-box {
    fill: none;
    stroke: #ddd;
    stroke-width: 2;
    stroke-linecap: square;
    stroke-linejoin: square;
}

.stroke-diagram--current-path {
    fill: none;
    stroke: #000;
    stroke-width: 3;
    stroke-linecap: round;
    stroke-linejoin: round;
}

.stroke-diagram--existing-path {
    fill: none;
    stroke: #aaa;
    stroke-width: 3;
    stroke-linecap: round;
    stroke-linejoin: round
}

.stroke-diagram--path-start {
    fill: rgba(255, 0, 0, 0.7);
    stroke: none
}
]]></style></defs><line class="stroke-diagram--bounding-box" x1="1" x2="199" y1="1" y2="1" /><line class="stroke-diagram--bounding-box" x1="1" x2="1" y1="1" y2="99" /><line class="stroke-diagram--bounding-box" x1="1" x2="199" y1="99" y2="99" /><line class="stroke-diagram--guide-line" x1="0" x2="200" y1="50" y2="50" /><line class="stroke-diagram--guide-line" x1="50" x2="50" y1="1" y2="99" /><line class="stroke-diagram--bounding-box" x1="99" x2="99" y1="1" y2="99" /><path class="stroke-diagram--current-path" d="M 23 12 C 22 43 17 73 29 85 32 88 37 83 42 69" /><circle class="stroke-diagram--path-start" cx="23" cy="12" r="4" /><line class="stroke-diagram--guide-line" x1="150" x2="150" y1="1" y2="99" /><line class="stroke-diagram--bounding-box" x1="199" x2="199" y1="1" y2="99" /><path class="stroke-diagram--existing-path" d="M 123 12 C 122 43 117 73 129 85 132 88 137 83 142 69" /><path class="stroke-diagram--current-path" d="M 169 38 C 178 44 187 68 186 74" /><circle class="stroke-diagram--path-start" cx="169" cy="38" r="4" /></svg>