<?xml version="1.0" encoding="utf-8" ?>
<?xml-stylesheet href="stroke-diagram.css" type="text/css" title="Stroke Diagram" alternate="no" media="screen"?>
<svg baseProfile="full" height="100" version="1.1" viewBox="(0, 0, 300, 100)" width="300" xmlns="http://www.w3.org/2000/svg" xmlns:ev="http://www.w3.org/2001/xml-events" xmlns:xlink="http://www.w3.org/1999/xlink"><defs /><line class="stroke-diagram--bounding-box" x1="1" x2="299" y1="1" y2="1" /><line class="stroke-diagram--bounding-box" x1="1" x2="1" y1="1" y2="99" /><line class="stroke-diagram--bounding-box" x1="1" x2="299" y1="99" y2="99" /><line class="stroke-diagram--guide-line" x1="0" x2="300" y1="50" y2="50" /><line class="stroke-diagram--guide-line" x1="50" x2="50" y1="1" y2="99" /><line class="stroke-diagram--bounding-box" x1="99" x2="99" y1="1" y2="99" /><path class="stroke-diagram--current-path" d="M 15 47 C 40 45 52 39 56 50 58 59 59 86 47 89 44 89 40 84 38 82" /><circle class="stroke-diagram--path-start" cx="15" cy="47" r="4" /><line class="stroke-diagram--guide-line" x1="150" x2="150" y1="1" y2="99" /><line class="stroke-diagram--bounding-box" x1="199" x2="199" y1="1" y2="99" /><path class="stroke-diagram--existing-path" d="M 115 47 C 140 45 152 39 156 50 158 59 159 86 147 89 144 89 140 84 138 82" /><path class="stroke-diagram--current-path" d="M 138 24 C 136 51 120 82 118 89" /><circle class="stroke-diagram--path-start" cx="138" cy="24" r="4" /><line class="stroke-diagram--guide-line" x1="250" x2="250" y1="1" y2="99" /><line class="stroke-diagram--bounding-box" x1="299" x2="299" y1="1" y2="99" /><path class="stroke-diagram--existing-path" d="M 215 47 C 240 45 252 39 256 50 258 59 259 86 247 89 244 89 240 84 238 82" /><path class="stroke-diagram--existing-path" d="M 238 24 C 236 51 220 82 218 89" /><path class="stroke-diagram--current-path" d="M 270 37 C 277 45 285 59 288 69" /><circle class="stroke-diagram--path-start" cx="270" cy="37" r="4" /></svg>