<?xml version="1.0" encoding="utf-8" ?>
<?xml-stylesheet href="stroke-diagram.css" type="text/css" title="Stroke Diagram" alternate="no" media="screen"?>
<svg baseProfile="full" height="100" version="1.1" viewBox="(0, 0, 300, 100)" width="300" xmlns="http://www.w3.org/2000/svg" xmlns:ev="http://www.w3.org/2001/xml-events" xmlns:xlink="http://www.w3.org/1999/xlink"><defs /><line class="stroke-diagram--bounding-box" x1="1" x2="299" y1="1" y2="1" /><line class="stroke-diagram--bounding-box" x1="1" x2="1" y1="1" y2="99" /><line class="stroke-diagram--bounding-box" x1="1" x2="299" y1="99" y2="99" /><line class="stroke-diagram--guide-line" x1="0" x2="300" y1="50" y2="50" /><line class="stroke-diagram--guide-line" x1="50" x2="50" y1="1" y2="99" /><line class="stroke-diagram--bounding-box" x1="99" x2="99" y1="1" y2="99" /><path class="stroke-diagram--current-path" d="M 39 14 C 37 30 29 46 16 57" /><circle class="stroke-diagram--path-start" cx="39" cy="14" r="4" /><line class="stroke-diagram--guide-line" x1="150" x2="150" y1="1" y2="99" /><line class="stroke-diagram--bounding-box" x1="199" x2="199" y1="1" y2="99" /><path class="stroke-diagram--existing-path" d="M 139 14 C 137 30 129 46 116 57" /><path class="stroke-diagram--current-path" d="M 133 34 C 139 34 178 35 184 35" /><circle class="stroke-diagram--path-start" cx="133" cy="34" r="4" /><line class="stroke-diagram--guide-line" x1="250" x2="250" y1="1" y2="99" /><line class="stroke-diagram--bounding-box" x1="299" x2="299" y1="1" y2="99" /><path class="stroke-diagram--existing-path" d="M 239 14 C 237 30 229 46 216 57" /><path class="stroke-diagram--existing-path" d="M 233 34 C 239 34 278 35 284 35" /><path class="stroke-diagram--current-path" d="M 261 34 C 262 62 249 77 229 81" /><circle class="stroke-diagram--path-start" cx="261" cy="34" r="4" /></svg>