<?xml version="1.0" encoding="utf-8" ?>
<svg baseProfile="full" height="100" version="1.1" viewBox="(0, 0, 300, 100)" width="300" xmlns="http://www.w3.org/2000/svg" xmlns:ev="http://www.w3.org/2001/xml-events" xmlns:xlink="http://www.w3.org/1999/xlink"><defs><style type="text/css"><![CDATA[
.stroke-diagram--outer-container {
    width: 100%;
    overflow-x: auto;
    overflow-y: hidden
}
.stroke-diagram--guide-line {
    fill: none;
    stroke: #ddd;
    stroke-width: 2;
    stroke-linecap: square;
    stroke-linejoin: square;
    stroke-dasharray: 5, 5
}
.stroke-diagram--bounding-box {
    fill: none;
    stroke: #ddd;
    stroke-width: 2;
    stroke-linecap: square;
    stroke-linejoin: square;
}

.stroke-diagram--current-path {
    fill: none;
    stroke: #000;
    stroke-width: 3;
    stroke-linecap: round;
    stroke-linejoin: round;
}

.stroke-diagram--existing-path {
    fill: none;
    stroke: #aaa;
    stroke-width: 3;
    stroke-linecap: round;
    stroke-linejoin: round
}

.stroke-diagram--path-start {
    fill: rgba(255, 0, 0, 0.7);
    stroke: none
}
]]></style></defs><line class="stroke-diagram--bounding-box" x1="1" x2="299" y1="1" y2="1" /><line class="stroke-diagram--bounding-box" x1="1" x2="1" y1="1" y2="99" /><line class="stroke-diagram--bounding-box" x1="1" x2="299" y1="99" y2="99" /><line class="stroke-diagram--guide-line" x1="0" x2="300" y1="50" y2="50" /><line class="stroke-diagram--guide-line" x1="50" x2="50" y1="1" y2="99" /><line class="stroke-diagram--bounding-box" x1="99" x2="99" y1="1" y2="99" /><path class="stroke-diagram--current-path" d="M 24 28 C 51 28 72 26 82 25" /><circle class="stroke-diagram--path-start" cx="24" cy="28" r="4" /><line class="stroke-diagram--guide-line" x1="150" x2="150" y1="1" y2="99" /><line class="stroke-diagram--bounding-box" x1="199" x2="199" y1="1" y2="99" /><path class="stroke-diagram--existing-path" d="M 124 28 C 151 28 172 26 182 25" /><path class="stroke-diagram--current-path" d="M 130 43 C 137 48 163 46 179 44" /><circle class="stroke-diagram--path-start" cx="130" cy="43" r="4" /><line class="stroke-diagram--guide-line" x1="250" x2="250" y1="1" y2="99" /><line class="stroke-diagram--bounding-box" x1="299" x2="299" y1="1" y2="99" /><path class="stroke-diagram--existing-path" d="M 224 28 C 251 28 272 26 282 25" /><path class="stroke-diagram--existing-path" d="M 230 43 C 237 48 263 46 279 44" /><path class="stroke-diagram--current-path" d="M 255 9 C 255 60 265 83 243 82 216 80 229 43 282 74" /><circle class="stroke-diagram--path-start" cx="255" cy="9" r="4" /></svg>