<?xml version="1.0" encoding="utf-8" ?>
<?xml-stylesheet href="stroke-diagram.css" type="text/css" title="Stroke Diagram" alternate="no" media="screen"?>
<svg baseProfile="full" height="100%" version="1.1" width="100%" xmlns="http://www.w3.org/2000/svg" xmlns:ev="http://www.w3.org/2001/xml-events" xmlns:xlink="http://www.w3.org/1999/xlink"><defs /><line class="stroke-diagram--bounding-box" x1="1" x2="199" y1="1" y2="1" /><line class="stroke-diagram--bounding-box" x1="1" x2="1" y1="1" y2="99" /><line class="stroke-diagram--bounding-box" x1="1" x2="199" y1="99" y2="99" /><line class="stroke-diagram--guide-line" x1="0" x2="200" y1="50" y2="50" /><line class="stroke-diagram--guide-line" x1="50" x2="50" y1="1" y2="99" /><line class="stroke-diagram--bounding-box" x1="99" x2="99" y1="1" y2="99" /><path class="stroke-diagram--current-path" d="M 34 16 C 35 32 33 74 35 89" /><circle class="stroke-diagram--path-start" cx="34" cy="16" r="4" /><line class="stroke-diagram--guide-line" x1="150" x2="150" y1="1" y2="99" /><line class="stroke-diagram--bounding-box" x1="199" x2="199" y1="1" y2="99" /><path class="stroke-diagram--existing-path" d="M 134 16 C 135 32 133 74 135 89" /><path class="stroke-diagram--current-path" d="M 114 41 C 123 39 135 36 142 32 132 51 122 67 115 76 139 38 164 30 171 36 183 41 186 83 163 81 141 76 159 48 188 80" /><circle class="stroke-diagram--path-start" cx="114" cy="41" r="4" /></svg>