<?xml version="1.0" encoding="utf-8" ?>
<?xml-stylesheet href="stroke-diagram.css" type="text/css" title="Stroke Diagram" alternate="no" media="screen"?>
<svg baseProfile="full" height="100" version="1.1" viewBox="(0, 0, 400, 100)" width="400" xmlns="http://www.w3.org/2000/svg" xmlns:ev="http://www.w3.org/2001/xml-events" xmlns:xlink="http://www.w3.org/1999/xlink"><defs /><line class="stroke-diagram--bounding-box" x1="1" x2="399" y1="1" y2="1" /><line class="stroke-diagram--bounding-box" x1="1" x2="1" y1="1" y2="99" /><line class="stroke-diagram--bounding-box" x1="1" x2="399" y1="99" y2="99" /><line class="stroke-diagram--guide-line" x1="0" x2="400" y1="50" y2="50" /><line class="stroke-diagram--guide-line" x1="50" x2="50" y1="1" y2="99" /><line class="stroke-diagram--bounding-box" x1="99" x2="99" y1="1" y2="99" /><path class="stroke-diagram--current-path" d="M 48 12 C 48 16 48 25 48 30" /><circle class="stroke-diagram--path-start" cx="48" cy="12" r="4" /><line class="stroke-diagram--guide-line" x1="150" x2="150" y1="1" y2="99" /><line class="stroke-diagram--bounding-box" x1="199" x2="199" y1="1" y2="99" /><path class="stroke-diagram--existing-path" d="M 148 12 C 148 16 148 25 148 30" /><path class="stroke-diagram--current-path" d="M 124 32 C 132 31 161 31 169 30 158 49 139 64 116 70" /><circle class="stroke-diagram--path-start" cx="124" cy="32" r="4" /><line class="stroke-diagram--guide-line" x1="250" x2="250" y1="1" y2="99" /><line class="stroke-diagram--bounding-box" x1="299" x2="299" y1="1" y2="99" /><path class="stroke-diagram--existing-path" d="M 248 12 C 248 16 248 25 248 30" /><path class="stroke-diagram--existing-path" d="M 224 32 C 232 31 261 31 269 30 258 49 239 64 216 70" /><path class="stroke-diagram--current-path" d="M 248 56 C 249 63 248 81 248 87" /><circle class="stroke-diagram--path-start" cx="248" cy="56" r="4" /><line class="stroke-diagram--guide-line" x1="350" x2="350" y1="1" y2="99" /><line class="stroke-diagram--bounding-box" x1="399" x2="399" y1="1" y2="99" /><path class="stroke-diagram--existing-path" d="M 348 12 C 348 16 348 25 348 30" /><path class="stroke-diagram--existing-path" d="M 324 32 C 332 31 361 31 369 30 358 49 339 64 316 70" /><path class="stroke-diagram--existing-path" d="M 348 56 C 349 63 348 81 348 87" /><path class="stroke-diagram--current-path" d="M 362 53 C 368 57 378 63 382 66" /><circle class="stroke-diagram--path-start" cx="362" cy="53" r="4" /></svg>