<?xml version="1.0" encoding="utf-8" ?>
<?xml-stylesheet href="stroke-diagram.css" type="text/css" title="Stroke Diagram" alternate="no" media="screen"?>
<svg baseProfile="full" height="100%" version="1.1" width="100%" xmlns="http://www.w3.org/2000/svg" xmlns:ev="http://www.w3.org/2001/xml-events" xmlns:xlink="http://www.w3.org/1999/xlink"><defs /><line class="stroke-diagram--bounding-box" x1="1" x2="199" y1="1" y2="1" /><line class="stroke-diagram--bounding-box" x1="1" x2="1" y1="1" y2="99" /><line class="stroke-diagram--bounding-box" x1="1" x2="199" y1="99" y2="99" /><line class="stroke-diagram--guide-line" x1="0" x2="200" y1="50" y2="50" /><line class="stroke-diagram--guide-line" x1="50" x2="50" y1="1" y2="99" /><line class="stroke-diagram--bounding-box" x1="99" x2="99" y1="1" y2="99" /><path class="stroke-diagram--current-path" d="M 18 29 C 19 35 33 67 44 77" /><circle class="stroke-diagram--path-start" cx="18" cy="29" r="4" /><line class="stroke-diagram--guide-line" x1="150" x2="150" y1="1" y2="99" /><line class="stroke-diagram--bounding-box" x1="199" x2="199" y1="1" y2="99" /><path class="stroke-diagram--existing-path" d="M 118 29 C 119 35 133 67 144 77" /><path class="stroke-diagram--current-path" d="M 154 21 C 148 60 135 89 122 81 109 73 119 28 163 36 193 46 182 76 166 83 151 88 150 66 164 68 171 69 180 75 187 82" /><circle class="stroke-diagram--path-start" cx="154" cy="21" r="4" /></svg>