<?xml version="1.0" encoding="utf-8" ?>
<?xml-stylesheet href="stroke-diagram.css" type="text/css" title="Stroke Diagram" alternate="no" media="screen"?>
<svg baseProfile="full" height="100" version="1.1" viewBox="(0, 0, 300, 100)" width="300" xmlns="http://www.w3.org/2000/svg" xmlns:ev="http://www.w3.org/2001/xml-events" xmlns:xlink="http://www.w3.org/1999/xlink"><defs /><line class="stroke-diagram--bounding-box" x1="1" x2="299" y1="1" y2="1" /><line class="stroke-diagram--bounding-box" x1="1" x2="1" y1="1" y2="99" /><line class="stroke-diagram--bounding-box" x1="1" x2="299" y1="99" y2="99" /><line class="stroke-diagram--guide-line" x1="0" x2="300" y1="50" y2="50" /><line class="stroke-diagram--guide-line" x1="50" x2="50" y1="1" y2="99" /><line class="stroke-diagram--bounding-box" x1="99" x2="99" y1="1" y2="99" /><path class="stroke-diagram--current-path" d="M 26 36 C 36 36 61 35 69 31" /><circle class="stroke-diagram--path-start" cx="26" cy="36" r="4" /><line class="stroke-diagram--guide-line" x1="150" x2="150" y1="1" y2="99" /><line class="stroke-diagram--bounding-box" x1="199" x2="199" y1="1" y2="99" /><path class="stroke-diagram--existing-path" d="M 126 36 C 136 36 161 35 169 31" /><path class="stroke-diagram--current-path" d="M 146 18 C 145 40 146 66 147 79 146 89 129 89 128 82 123 62 144 54 165 54 177 52 191 58 190 69 190 76 184 83 176 84 167 85 163 78 162 75" /><circle class="stroke-diagram--path-start" cx="146" cy="18" r="4" /><line class="stroke-diagram--guide-line" x1="250" x2="250" y1="1" y2="99" /><line class="stroke-diagram--bounding-box" x1="299" x2="299" y1="1" y2="99" /><path class="stroke-diagram--existing-path" d="M 226 36 C 236 36 261 35 269 31" /><path class="stroke-diagram--existing-path" d="M 246 18 C 245 40 246 66 247 79 246 89 229 89 228 82 223 62 244 54 265 54 277 52 291 58 290 69 290 76 284 83 276 84 267 85 263 78 262 75" /><path class="stroke-diagram--current-path" d="M 277 29 C 282 31 290 36 293 41" /><circle class="stroke-diagram--path-start" cx="277" cy="29" r="4" /></svg>