<?xml version="1.0" encoding="utf-8" ?>
<svg baseProfile="full" height="100" version="1.1" viewBox="(0, 0, 300, 100)" width="300" xmlns="http://www.w3.org/2000/svg" xmlns:ev="http://www.w3.org/2001/xml-events" xmlns:xlink="http://www.w3.org/1999/xlink"><defs><style type="text/css"><![CDATA[
.stroke-diagram--outer-container {
    width: 100%;
    overflow-x: auto;
    overflow-y: hidden
}
.stroke-diagram--guide-line {
    fill: none;
    stroke: #ddd;
    stroke-width: 2;
    stroke-linecap: square;
    stroke-linejoin: square;
    stroke-dasharray: 5, 5
}
.stroke-diagram--bounding-box {
    fill: none;
    stroke: #ddd;
    stroke-width: 2;
    stroke-linecap: square;
    stroke-linejoin: square;
}

.stroke-diagram--current-path {
    fill: none;
    stroke: #000;
    stroke-width: 3;
    stroke-linecap: round;
    stroke-linejoin: round;
}

.stroke-diagram--existing-path {
    fill: none;
    stroke: #aaa;
    stroke-width: 3;
    stroke-linecap: round;
    stroke-linejoin: round
}

.stroke-diagram--path-start {
    fill: rgba(255, 0, 0, 0.7);
    stroke: none
}
]]></style></defs><line class="stroke-diagram--bounding-box" x1="1" x2="299" y1="1" y2="1" /><line class="stroke-diagram--bounding-box" x1="1" x2="1" y1="1" y2="99" /><line class="stroke-diagram--bounding-box" x1="1" x2="299" y1="99" y2="99" /><line class="stroke-diagram--guide-line" x1="0" x2="300" y1="50" y2="50" /><line class="stroke-diagram--guide-line" x1="50" x2="50" y1="1" y2="99" /><line class="stroke-diagram--bounding-box" x1="99" x2="99" y1="1" y2="99" /><path class="stroke-diagram--current-path" d="M 15 40 C 36 40 64 41 90 40" /><circle class="stroke-diagram--path-start" cx="15" cy="40" r="4" /><line class="stroke-diagram--guide-line" x1="150" x2="150" y1="1" y2="99" /><line class="stroke-diagram--bounding-box" x1="199" x2="199" y1="1" y2="99" /><path class="stroke-diagram--existing-path" d="M 115 40 C 136 40 164 41 190 40" /><path class="stroke-diagram--current-path" d="M 159 19 C 159 97 165 91 144 86" /><circle class="stroke-diagram--path-start" cx="159" cy="19" r="4" /><line class="stroke-diagram--guide-line" x1="250" x2="250" y1="1" y2="99" /><line class="stroke-diagram--bounding-box" x1="299" x2="299" y1="1" y2="99" /><path class="stroke-diagram--existing-path" d="M 215 40 C 236 40 264 41 290 40" /><path class="stroke-diagram--existing-path" d="M 259 19 C 259 97 265 91 244 86" /><path class="stroke-diagram--current-path" d="M 255 41 C 244 62 226 76 216 82" /><circle class="stroke-diagram--path-start" cx="255" cy="41" r="4" /></svg>