<?xml version="1.0" encoding="utf-8" ?>
<svg baseProfile="full" height="100" version="1.1" viewBox="(0, 0, 300, 100)" width="300" xmlns="http://www.w3.org/2000/svg" xmlns:ev="http://www.w3.org/2001/xml-events" xmlns:xlink="http://www.w3.org/1999/xlink"><defs><style type="text/css"><![CDATA[
.stroke-diagram--outer-container {
    width: 100%;
    overflow-x: auto;
    overflow-y: hidden
}
.stroke-diagram--guide-line {
    fill: none;
    stroke: #ddd;
    stroke-width: 2;
    stroke-linecap: square;
    stroke-linejoin: square;
    stroke-dasharray: 5, 5
}
.stroke-diagram--bounding-box {
    fill: none;
    stroke: #ddd;
    stroke-width: 2;
    stroke-linecap: square;
    stroke-linejoin: square;
}

.stroke-diagram--current-path {
    fill: none;
    stroke: #000;
    stroke-width: 3;
    stroke-linecap: round;
    stroke-linejoin: round;
}

.stroke-diagram--existing-path {
    fill: none;
    stroke: #aaa;
    stroke-width: 3;
    stroke-linecap: round;
    stroke-linejoin: round
}

.stroke-diagram--path-start {
    fill: rgba(255, 0, 0, 0.7);
    stroke: none
}
]]></style></defs><line class="stroke-diagram--bounding-box" x1="1" x2="299" y1="1" y2="1" /><line class="stroke-diagram--bounding-box" x1="1" x2="1" y1="1" y2="99" /><line class="stroke-diagram--bounding-box" x1="1" x2="299" y1="99" y2="99" /><line class="stroke-diagram--guide-line" x1="0" x2="300" y1="50" y2="50" /><line class="stroke-diagram--guide-line" x1="50" x2="50" y1="1" y2="99" /><line class="stroke-diagram--bounding-box" x1="99" x2="99" y1="1" y2="99" /><path class="stroke-diagram--current-path" d="M 26 26 C 27 37 26 67 25 77" /><circle class="stroke-diagram--path-start" cx="26" cy="26" r="4" /><line class="stroke-diagram--guide-line" x1="150" x2="150" y1="1" y2="99" /><line class="stroke-diagram--bounding-box" x1="199" x2="199" y1="1" y2="99" /><path class="stroke-diagram--existing-path" d="M 126 26 C 127 37 126 67 125 77" /><path class="stroke-diagram--current-path" d="M 126 26 C 136 25 170 25 179 26 178 33 178 69 179 77" /><circle class="stroke-diagram--path-start" cx="126" cy="26" r="4" /><line class="stroke-diagram--guide-line" x1="250" x2="250" y1="1" y2="99" /><line class="stroke-diagram--bounding-box" x1="299" x2="299" y1="1" y2="99" /><path class="stroke-diagram--existing-path" d="M 226 26 C 227 37 226 67 225 77" /><path class="stroke-diagram--existing-path" d="M 226 26 C 236 25 270 25 279 26 278 33 278 69 279 77" /><path class="stroke-diagram--current-path" d="M 226 69 C 239 69 267 69 279 69" /><circle class="stroke-diagram--path-start" cx="226" cy="69" r="4" /></svg>