<?xml version="1.0" encoding="utf-8" ?>
<?xml-stylesheet href="stroke-diagram.css" type="text/css" title="Stroke Diagram" alternate="no" media="screen"?>
<svg baseProfile="full" height="100" version="1.1" viewBox="(0, 0, 400, 100)" width="400" xmlns="http://www.w3.org/2000/svg" xmlns:ev="http://www.w3.org/2001/xml-events" xmlns:xlink="http://www.w3.org/1999/xlink"><defs /><line class="stroke-diagram--bounding-box" x1="1" x2="399" y1="1" y2="1" /><line class="stroke-diagram--bounding-box" x1="1" x2="1" y1="1" y2="99" /><line class="stroke-diagram--bounding-box" x1="1" x2="399" y1="99" y2="99" /><line class="stroke-diagram--guide-line" x1="0" x2="400" y1="50" y2="50" /><line class="stroke-diagram--guide-line" x1="50" x2="50" y1="1" y2="99" /><line class="stroke-diagram--bounding-box" x1="99" x2="99" y1="1" y2="99" /><path class="stroke-diagram--current-path" d="M 20 35 C 32 35 47 34 62 30" /><circle class="stroke-diagram--path-start" cx="20" cy="35" r="4" /><line class="stroke-diagram--guide-line" x1="150" x2="150" y1="1" y2="99" /><line class="stroke-diagram--bounding-box" x1="199" x2="199" y1="1" y2="99" /><path class="stroke-diagram--existing-path" d="M 120 35 C 132 35 147 34 162 30" /><path class="stroke-diagram--current-path" d="M 143 16 C 137 39 133 64 121 85" /><circle class="stroke-diagram--path-start" cx="143" cy="16" r="4" /><line class="stroke-diagram--guide-line" x1="250" x2="250" y1="1" y2="99" /><line class="stroke-diagram--bounding-box" x1="299" x2="299" y1="1" y2="99" /><path class="stroke-diagram--existing-path" d="M 220 35 C 232 35 247 34 262 30" /><path class="stroke-diagram--existing-path" d="M 243 16 C 237 39 233 64 221 85" /><path class="stroke-diagram--current-path" d="M 257 45 C 267 44 280 44 286 45" /><circle class="stroke-diagram--path-start" cx="257" cy="45" r="4" /><line class="stroke-diagram--guide-line" x1="350" x2="350" y1="1" y2="99" /><line class="stroke-diagram--bounding-box" x1="399" x2="399" y1="1" y2="99" /><path class="stroke-diagram--existing-path" d="M 320 35 C 332 35 347 34 362 30" /><path class="stroke-diagram--existing-path" d="M 343 16 C 337 39 333 64 321 85" /><path class="stroke-diagram--existing-path" d="M 357 45 C 367 44 380 44 386 45" /><path class="stroke-diagram--current-path" d="M 350 64 C 349 83 368 82 387 80" /><circle class="stroke-diagram--path-start" cx="350" cy="64" r="4" /></svg>