<?xml version="1.0" encoding="utf-8" ?>
<?xml-stylesheet href="stroke-diagram.css" type="text/css" title="Stroke Diagram" alternate="no" media="screen"?>
<svg baseProfile="full" height="100" version="1.1" viewBox="(0, 0, 300, 100)" width="300" xmlns="http://www.w3.org/2000/svg" xmlns:ev="http://www.w3.org/2001/xml-events" xmlns:xlink="http://www.w3.org/1999/xlink"><defs /><line class="stroke-diagram--bounding-box" x1="1" x2="299" y1="1" y2="1" /><line class="stroke-diagram--bounding-box" x1="1" x2="1" y1="1" y2="99" /><line class="stroke-diagram--bounding-box" x1="1" x2="299" y1="99" y2="99" /><line class="stroke-diagram--guide-line" x1="0" x2="300" y1="50" y2="50" /><line class="stroke-diagram--guide-line" x1="50" x2="50" y1="1" y2="99" /><line class="stroke-diagram--bounding-box" x1="99" x2="99" y1="1" y2="99" /><path class="stroke-diagram--current-path" d="M 43 16 C 40 31 27 47 19 54" /><circle class="stroke-diagram--path-start" cx="43" cy="16" r="4" /><line class="stroke-diagram--guide-line" x1="150" x2="150" y1="1" y2="99" /><line class="stroke-diagram--bounding-box" x1="199" x2="199" y1="1" y2="99" /><path class="stroke-diagram--existing-path" d="M 143 16 C 140 31 127 47 119 54" /><path class="stroke-diagram--current-path" d="M 138 30 C 149 30 166 30 173 30 167 40 168 70 122 85" /><circle class="stroke-diagram--path-start" cx="138" cy="30" r="4" /><line class="stroke-diagram--guide-line" x1="250" x2="250" y1="1" y2="99" /><line class="stroke-diagram--bounding-box" x1="299" x2="299" y1="1" y2="99" /><path class="stroke-diagram--existing-path" d="M 243 16 C 240 31 227 47 219 54" /><path class="stroke-diagram--existing-path" d="M 238 30 C 249 30 266 30 273 30 267 40 268 70 222 85" /><path class="stroke-diagram--current-path" d="M 237 46 C 246 50 258 59 265 66" /><circle class="stroke-diagram--path-start" cx="237" cy="46" r="4" /></svg>