<?xml version="1.0" encoding="utf-8" ?>
<?xml-stylesheet href="stroke-diagram.css" type="text/css" title="Stroke Diagram" alternate="no" media="screen"?>
<svg baseProfile="full" height="100" version="1.1" viewBox="(0, 0, 200, 100)" width="200" xmlns="http://www.w3.org/2000/svg" xmlns:ev="http://www.w3.org/2001/xml-events" xmlns:xlink="http://www.w3.org/1999/xlink"><defs /><line class="stroke-diagram--bounding-box" x1="1" x2="199" y1="1" y2="1" /><line class="stroke-diagram--bounding-box" x1="1" x2="1" y1="1" y2="99" /><line class="stroke-diagram--bounding-box" x1="1" x2="199" y1="99" y2="99" /><line class="stroke-diagram--guide-line" x1="0" x2="200" y1="50" y2="50" /><line class="stroke-diagram--guide-line" x1="50" x2="50" y1="1" y2="99" /><line class="stroke-diagram--bounding-box" x1="99" x2="99" y1="1" y2="99" /><path class="stroke-diagram--current-path" d="M 36 19 C 35 27 36 38 41 50" /><circle class="stroke-diagram--path-start" cx="36" cy="19" r="4" /><line class="stroke-diagram--guide-line" x1="150" x2="150" y1="1" y2="99" /><line class="stroke-diagram--bounding-box" x1="199" x2="199" y1="1" y2="99" /><path class="stroke-diagram--existing-path" d="M 136 19 C 135 27 136 38 141 50" /><path class="stroke-diagram--current-path" d="M 170 38 C 102 62 113 90 170 83" /><circle class="stroke-diagram--path-start" cx="170" cy="38" r="4" /></svg>