<?xml version="1.0" encoding="utf-8" ?>
<?xml-stylesheet href="stroke-diagram.css" type="text/css" title="Stroke Diagram" alternate="no" media="screen"?>
<svg baseProfile="full" height="100" version="1.1" viewBox="(0, 0, 300, 100)" width="300" xmlns="http://www.w3.org/2000/svg" xmlns:ev="http://www.w3.org/2001/xml-events" xmlns:xlink="http://www.w3.org/1999/xlink"><defs /><line class="stroke-diagram--bounding-box" x1="1" x2="299" y1="1" y2="1" /><line class="stroke-diagram--bounding-box" x1="1" x2="1" y1="1" y2="99" /><line class="stroke-diagram--bounding-box" x1="1" x2="299" y1="99" y2="99" /><line class="stroke-diagram--guide-line" x1="0" x2="300" y1="50" y2="50" /><line class="stroke-diagram--guide-line" x1="50" x2="50" y1="1" y2="99" /><line class="stroke-diagram--bounding-box" x1="99" x2="99" y1="1" y2="99" /><path class="stroke-diagram--current-path" d="M 27 30 C 37 30 68 30 76 30 77 41 76 82 76 91" /><circle class="stroke-diagram--path-start" cx="27" cy="30" r="4" /><line class="stroke-diagram--guide-line" x1="150" x2="150" y1="1" y2="99" /><line class="stroke-diagram--bounding-box" x1="199" x2="199" y1="1" y2="99" /><path class="stroke-diagram--existing-path" d="M 127 30 C 137 30 168 30 176 30 177 41 176 82 176 91" /><path class="stroke-diagram--current-path" d="M 131 55 C 142 55 166 55 176 55" /><circle class="stroke-diagram--path-start" cx="131" cy="55" r="4" /><line class="stroke-diagram--guide-line" x1="250" x2="250" y1="1" y2="99" /><line class="stroke-diagram--bounding-box" x1="299" x2="299" y1="1" y2="99" /><path class="stroke-diagram--existing-path" d="M 227 30 C 237 30 268 30 276 30 277 41 276 82 276 91" /><path class="stroke-diagram--existing-path" d="M 231 55 C 242 55 266 55 276 55" /><path class="stroke-diagram--current-path" d="M 227 83 C 236 83 268 83 277 83" /><circle class="stroke-diagram--path-start" cx="227" cy="83" r="4" /></svg>